<svg xmlns="http://www.w3.org/2000/svg" viewBox="0 0 762.77 487.57"><defs><style>.cls-1{opacity:1;}.cls-2{fill:#fff;}</style></defs><g id="Camada_2" data-name="Camada 2"><g id="Camada_1-2" data-name="Camada 1"><g class="cls-1"><path class="cls-2" d="M438.92,457.21l-11.32,1.65c-7.22,1.05-14.47,1.92-21.65,3.2-7.81,1.39-15.55,3.16-23.32,4.77a31.56,31.56,0,0,0-5.78,1.34c-3.6,1.52-6.4.46-9.31-2.22.92-1.06,1.7-2.08,2.6-3a68.63,68.63,0,0,0,14.25-20.34,19,19,0,0,0,1.68-7.67c-.05-10.65-.46-21.3-.67-31.95-.09-4.29,0-8.59,0-13.26-19.83,4.13-39.26,6.15-59.28,4.9a41,41,0,0,0-.48,4.14q0,18.49,0,37a16.29,16.29,0,0,0,5.83,12.73c2.47,2.15,5,4.2,8.11,6.76l-27.26,7.57c-3.52,1-7,2-10.58,2.83-2.82.63-5.31,1.05-6.56,4.42-.48,1.31-3.25,2.55-4.94,2.5a65.84,65.84,0,0,0-30,5.88c-2.75,1.27-5.44.55-7.91-1.38-5.38-4.19-10.84-8.27-16.34-12.29a28.87,28.87,0,0,0-5.18-2.9c-11.55-5.2-23-10.56-33.71-17.4-3.91-2.51-7.56-5.48-11.63-7.7a38.78,38.78,0,0,0-19-4.93,17.5,17.5,0,0,1-12.93-5.15,49,49,0,0,0-4-3.09v11.13c0,9.67.13,19.34,0,29a21.05,21.05,0,0,0,5.71,15c2.31,2.58,4.77,5,7.22,7.61-7.43,3.48-55.38-1-83.29-7.19-30.37-6.77-65.74-22-78.33-30.61,2-1,3.93-1.87,5.71-2.92,4.44-2.62,6.94-6.14,6.92-11.72q-.21-67.74-.05-135.5c0-5.58-2.15-10.34-4.84-15-2.25-3.86-4.72-7.59-7.33-11.76,1.65-1.05,3.19-1.94,4.63-3,4.85-3.48,7.65-7.76,7.62-14.21q-.32-53.75,0-107.5a25.46,25.46,0,0,0-4.29-14.53C6.35,128.21,3.43,124,0,118.94c3.63,1,6.43,1.64,9.2,2.41,14.21,4,28.67,6.72,43.14,9.48A16.24,16.24,0,0,1,58.92,134c9.75,7.52,19.35,15.23,29.27,23.08,4.54-3,8.85-6.09,13.36-8.82,20.18-12.23,41.22-22.59,64.54-27.14a120.45,120.45,0,0,1,41.19-1.29c1.43.22,2.84.61,4.43,1-4.57-14.19-17-30-28.74-36.64,8.48-6,14.95-13.74,20.3-22.51a52,52,0,0,0,5.88-15.29c.59-2.49-.33-4.52-1.49-6.61q-9.82-17.67-19.52-35.41c-.69-1.26-1.27-2.6-2.11-4.33h12.62c2.9,5.35,5.79,10.77,8.76,16.15,11.18,20.24,22.34,40.5,33.65,60.67,1.67,3,1.84,5.22,0,8.22-6.68,10.73-13.07,21.65-19.56,32.52-.75,1.25-1.39,2.58-2.34,4.34,2.31.68,4.29,1.3,6.29,1.85,10.07,2.79,19.41,6.84,26.76,14.66,6.81,7.24,11.91,15.6,16.32,24.41,2.45,4.9,4.52,10,6.81,15a16.56,16.56,0,0,0,3.73,5.51,24.15,24.15,0,0,0,.39-3c0-8.5-.19-17,.08-25.5.17-5.57-2.14-9.95-5.42-14-2.29-2.83-4.83-5.46-7.84-8.82L339.49,122c-2.09,2.65-3.65,4.72-5.3,6.72A35.92,35.92,0,0,0,325.47,153c.33,33.83.13,67.66.13,101.5a23.08,23.08,0,0,0,6,15.93c5,5.66,11.28,5.88,17.84,5.06a32.41,32.41,0,0,0,8.52-2.61c3.65-1.55,3.7-2.29,3-6.18-.71-3.72-1.08-7.51-1.53-11.28-.72-6.12,2.37-10.56,6.64-14.31a38.55,38.55,0,0,1,16.14-8.55,30.71,30.71,0,0,0,3.23-1.26v-5.24c0-28.83-.17-57.67.13-86.5.07-6.44-2.51-11.09-6.53-15.49-2.12-2.32-4.11-4.76-6.16-7.14,23.25-3.81,47.06-7.39,72-10.58-1.39,1.82-2.08,2.8-2.86,3.73-2.24,2.67-4.49,5.34-6.77,8-4.13,4.77-4.66,10.48-4.5,16.44.05,2.19,1.45,3.25,2.86,4.4q12.78,10.4,25.6,20.76,17.1,13.78,34.28,27.49a16.15,16.15,0,0,0,1.64,1c.1-1.45.26-2.67.26-3.9,0-20.66-.1-41.33.09-62a16.26,16.26,0,0,0-5.62-12.74c-2.67-2.46-5.6-4.65-9-7.46C493.12,99.66,505.11,99,517,97.91s24-2.78,36.87-2l-3.8,4c-1.81,2-3.71,3.82-5.39,5.89a18.34,18.34,0,0,0-4,13.49c.28,3.48.48,7,.5,10.47.16,26.32.36,52.65.33,79A18,18,0,0,0,546.07,221c1.51,1.76,3.33,3.26,4.9,5,1.17,1.28,2.17,2.72,3.51,4.43l39.06,7.32c-2-4.58-6.12-6.91-9-10.7,1.75-2,3.43-4,5.19-6a24.64,24.64,0,0,0,6.74-17.61q-.4-43.5,0-87c.07-6.68-2.6-11.5-6.94-15.87-1.86-1.86-3.94-3.5-6-5.32,5.24-1.46,47.52-.95,70.09,2-2,2-3.61,3.86-5.4,5.47-4.75,4.27-6.81,9.42-6.76,15.91.21,24.33.08,48.67.08,73v5.48c1.63-.6,2.68-.91,3.67-1.36,6.95-3.21,13.9-6.39,20.07-11,6.86-5.15,12.18-11.44,14.33-19.85a55,55,0,0,0,1.57-12.27c.22-9.33-.12-18.67.11-28,.19-7.25-2.32-13.33-6.8-18.79-1.78-2.17-3.61-4.29-6-7.09a494.14,494.14,0,0,1,69.39,13.1l-3,2.8c-2.19,2-4.5,4-6.53,6.12a14.1,14.1,0,0,0-3.77,10q0,25.25,0,50.5c0,6.5,3.16,11.77,6.35,17,2,3.37,4.35,6.58,6.68,10.08-7.75.21-15,0-22.18.75a143.91,143.91,0,0,0-20.94,4.06,186.26,186.26,0,0,0-20.9,7.24c22.28,8.5,43.95,18,64.81,30.55-4.38,2.87-8.92,4.75-11.19,8.51.51,3.94,1.3,7.37,1.27,10.8a17.16,17.16,0,0,1-1.85,7.62,16.65,16.65,0,0,0-2.07,9.05c.16,3,0,6,0,8.83,3.88,1.14,4,1.21,5.59-2,2.52-5,4.83-10.17,7.23-15.26a19.38,19.38,0,0,1,1-2.26c1.57-2.55,3.14-3.19,5.87-1.91a56.64,56.64,0,0,1,15.86,11.15c3,3,3.36,10.3,1,14-1.69,2.66-3.91,5-5.41,7.77-5.14,9.47-12.05,17.77-17.47,27.06-3.6,6.18-7.68,12.08-11.68,18a11.69,11.69,0,0,0-2.13,7c.11,14.5.22,29,0,43.5a36.88,36.88,0,0,0,5.18,19c2.43,4.33,5.11,8.52,8,13.4-12-4.95-23.22-10-34.77-14.23s-23.56-7.49-35.84-11.33c1.76-1.75,3.28-3.23,4.75-4.75,4.17-4.32,7.17-9.06,6.65-15.49a86.54,86.54,0,0,1,0-11.5c.28-5.6-.37-11-3.26-15.89-.92-1.57-1.2-3.07.12-4.6,3.76-4.35,3.42-9.44,2.72-14.76-3.5-1.27-7-1-10.41-.48a8.56,8.56,0,0,0-7,8.88,10.11,10.11,0,0,1-2.41,7.76,13.86,13.86,0,0,1-8.2,5.2c-2.27.41-4.52.9-7.49,1.5a69.28,69.28,0,0,1-.1,7.43c-1.35,11.78,2.09,22,9.68,31a26.66,26.66,0,0,1,1.86,3c-6.27.34-11.76-1.58-17.38-2-5.79-.47-11.55-1.43-17.34-1.88s-11.64-.63-17.46-.76-11.55,0-17.94,0a20.41,20.41,0,0,1,1.68-2.84c1.3-1.51,2.76-2.89,4.06-4.4,4.36-5.05,7.26-10.56,6.77-17.63-.41-6.11-.08-12.26-.08-18.26-17.91-6.66-36.13-9.62-54.81-12.83V352c0,9.66.26,19.34-.09,29-.24,6.56,2.21,11.6,6.68,16,2.11,2.08,4.13,4.25,6.92,7.12-4.84.66-8.82,1.25-12.8,1.71s-7.94.72-11.88,1.23c-4.11.54-8.2,1.25-12.29,2s-8.17,1.44-12.25,2.22c-3.9.76-7.78,1.6-11.68,2.39s-8,1.6-13.15,2.62c2.5-3.19,4.45-5.35,6-7.75a114.72,114.72,0,0,0,6.82-11.55,15.86,15.86,0,0,0,1.43-6.75c.12-16.17.07-32.34.06-48.5a18.65,18.65,0,0,0-.2-1.91c-7.91-2.69-53-5.65-63.28-4.11-.1,1.18-.3,2.44-.3,3.71,0,22.17-.22,44.34.11,66.5.12,7.76,1.36,15.52,2.48,23.22C435.48,438.21,437.22,447.29,438.92,457.21ZM685.54,277.35c-6.33-.45-12.12-.52-17.82-1.33-10.27-1.47-19.74-5.77-29.32-9.45C616,258,592.81,252.37,569.31,247.9c-9.45-1.79-19-3.3-28.49-4.66q-17-2.42-34.1-4.31c-8.75-1-17.54-1.64-26.33-2.16-9.8-.57-19.61-1-29.42-1.14a270.68,270.68,0,0,0-44.22,3.44c-8.71,1.31-17.23,3.49-25,7.87-5.13,2.87-9.89,6.15-13.5,10.89-2.73,3.61-3.51,7.23-1.39,11.58,6.74,13.85,10.46,28.69,13.66,43.65,1.45,6.75,2.3,13.62,3.44,20.54,4.14-2,7.94-4,12-5.55,8.75-3.29,18-4.47,27.24-5.13,11.77-.85,23.61-1.08,35.42-1,6.95,0,13.91,1,20.86,1.66,7.26.68,14.52,1.39,21.77,2.22,6.42.74,12.88,1.4,19.24,2.55,10.93,2,21.79,4.3,32.68,6.52,11.7,2.38,23.49,4.38,35.06,7.3,13.8,3.48,27.52,7.29,41.61,9.29a42.6,42.6,0,0,0,21.62-2.11,8.85,8.85,0,0,0,5.94-6.67c3.73-15.28,10.29-29.48,17-43.61C677.75,291.68,681.76,284.59,685.54,277.35ZM203.93,273c1.17,1.48,2,2.47,2.78,3.54,4.09,5.84,6.44,11.87,3.39,19.12-1.38,3.27-2.26,6.91-1.13,10.92,3.93-2.43,6.63-.85,8.48,2.89,3.27-2.8,6.26-5.28,10.47-2.19,2.91-4.65,5.62-9,8.48-13.55.64,5.11-2.82,9-3.79,13.53l6.91,2.75c1.72-2.47,2-5.83,5.61-7.32l5.16,3.63L255,293.65l.76.2c-.4,4.1-.8,8.2-1.32,13.42,4.07-4.27,7.35-4.41,10.56-.22.86-5.91,6-4.41,9.43-6.57,0-1.65-.14-3.48,0-5.27s-.77-4,1.69-5.52c.51,4.83,1,9.33,1.52,14.24,3.24-1.81,6.12-4.11,8.32.32l4-2c-.53-5.33-1-10.51-1.55-15.7l.84-.2,5,14.12c4.06-.94,3.28-3.59,2.87-5.69-1.39-7.14-3.2-14.21-4.47-21.37-.51-2.85-2.23-5.73-.71-9.18,1.48,3.94,2.83,7.5,4.54,12,2.65-5.07,4.95-9.11,6.91-13.3s1.51-6-2.51-8.91c-2.55-1.82-5.65-2.9-8.11-4.82a11.22,11.22,0,0,0-9.33-2.1,10.09,10.09,0,0,1-2.34-.17c3.85-3.58,7.51-6.87,11-10.32a5.61,5.61,0,0,0,1.23-3.09,20.92,20.92,0,0,0-2-11.61,44.12,44.12,0,0,1-4.16-20.8,26.62,26.62,0,0,0-.36-4c-.29-3.2-2.08-5.05-5.11-6a49,49,0,0,1-6.51-2.42c-2.85-1.3-5.59-2.82-8.37-4.27-3.06-1.59-6.1-3.2-9.15-4.8l.36-.92,11.1,2.84c.14-.76.33-1.12.23-1.36-4.43-11.17-9.55-22-16.79-31.64-5.38-7.18-11.94-12.79-20.48-16.05A124.52,124.52,0,0,0,195.64,125c-9.84-.66-19.59.65-29.21,2.59-25.55,5.15-48.12,17.06-69.61,31.31a25.71,25.71,0,0,0-2.52,2.18c6.22,6.59,50.57,37.9,55.8,39.42.2-1.48.4-2.95.61-4.42A37.41,37.41,0,0,0,149,178.38c-2.88-8.3-8.8-13.28-17.81-13.53-4.43-.12-8.88.63-13.33.94a19.31,19.31,0,0,1-3-.35c5.56-2.08,10.56-3.07,15.78-2.69,9.34.66,16.52,4.55,20.38,13.52a43.34,43.34,0,0,1,3.06,23.37c-.19,1.44-.38,2.88-.57,4.35l9.14,5.3c.3-2.13.49-3.57.7-5a22.6,22.6,0,0,1,5.94-12.89c4.19-4.33,7.86-5,13.43-2.72a65.22,65.22,0,0,0,8.92,3.07,77,77,0,0,0,25.75,2.13c5.21-.45,7.23,1.81,9,5.68a22,22,0,0,1,1.85,4.6c.54,2.9,1,5.71-1.67,8.28-1.53,1.47-2.36,4-2.89,6.15-1.14,4.66-1.82,9.43-2.8,14.14-1.23,5.95-4,9-11.67,9.13a109.53,109.53,0,0,1-11.4-.87,64.28,64.28,0,0,1-23.31-6.68c-5.86-2.91-9.77-7.35-11-13.9-.54-2.82-1-5.66-1.58-8.91a27.18,27.18,0,0,0-11.09,17.15A67.41,67.41,0,0,0,149.61,241c-.15,12.16-.05,24.32-.05,36.49,0,9.23,0,9.26,8.41,12.85a44.33,44.33,0,0,0,5.21,1.63c5.9,1.69,11.48.43,16.88-2a10.44,10.44,0,0,0,3-2.49c4.22-4.47,8.16-9.23,12.6-13.46,8.46-8.06,22.9-8.86,32.54-1.45C220.31,269.83,212.39,267.82,203.93,273Zm7.55,155.35,1-.8a26,26,0,0,1,4,3.4,34.65,34.65,0,0,1,4.36,6.65c4.57,9.59,11.73,16.76,20.3,22.81,5.55,3.91,10.78,8.28,15.93,12.27,3.59-1.18,6.71-2.29,9.89-3.21,2.6-.75,4.82-1.58,6.14-4.4a6.18,6.18,0,0,1,5-4l-4,6,15.5-1.3a9.45,9.45,0,0,0-.32-2.17c-2.28-5-4.55-10-6.93-14.93-4.32-9-9.63-17.49-12.44-27.18-.46-1.58-1.91-2.87-2.73-4-1.77.83-3.19,2.09-4.27,1.84-1.26-.28-2.22-1.88-3.38-3a39.54,39.54,0,0,1-2.32,3.91c-1.68,2.19-3.08,2.11-4.64-.17a13.41,13.41,0,0,1-.92-1.87c-1.63,1.4-3,3.46-4.3,3.44s-2.86-2-4.32-3.11c-2,2-2.33,6.35-7,5.58-1.11-3.49-2.18-6.82-3.42-10.72a44.34,44.34,0,0,1-2.69,5.11c-2,2.77-3.79,2.72-5.88-.12a48.1,48.1,0,0,1-2.64-4.55c-2.7,2.29-5.78,4.16-9.07,2.5-2.83-1.43-5.16-3.86-8.37-6.36-5.81,1.61-9.91-1.42-12.08-7.71-5.34-.37-9.07-3.44-10-8.21-.71-3.48-2.38-5.95-4.12-8.72a30.44,30.44,0,0,1-4.09-8.48c-1.43-5.76-2.3-11.67-3.19-17.56a46.77,46.77,0,0,1-.05-6.7c1.77,6.84,2.4,13.81,5.57,20.48.48-11.2,1-22,1.37-32.78.2-6.3-.36-12.63,1.85-18.76a17.94,17.94,0,0,0,.93-5.87,20,20,0,0,0-.8-6.32c-1.05-3.21-3.75-4.4-6.73-2.88a31.7,31.7,0,0,0-6.88,4.83c-4.9,4.5-9.65,9.16-14.32,13.91a6.29,6.29,0,0,0-1.74,3.88c-.14,10-.08,20-.08,29.94l.64,0q.8-7.57,1.6-15.14a10.86,10.86,0,0,1,.73,4.27c-.1,4.66,0,9.33-.52,14s-2.17,9.44-2.32,14.19c-.36,11.49-.15,23-.09,34.48a6.55,6.55,0,0,0,.92,3.72c4.8,6.39,10.18,11.21,19.17,11.47s17.38,3.51,24.94,9c6.44,4.64,13.56,8.36,20.43,12.4,2.35,1.39,4.86,2.52,8.23,4.25-1.65-4-3-6.75-4-9.66C217.64,436.85,215.67,432,211.48,428.34ZM60.8,294.75V434.3A271.89,271.89,0,0,0,103,443.86V344.31c-6.2-.88-10.82-4.23-15.08-8.32-9.48-9.1-16.29-20.08-22.37-31.59C64.05,301.5,62.66,298.51,60.8,294.75Zm279.82,83a170.17,170.17,0,0,0,44.53-6V358.37c-5.54-3.44-6.46-5.3-6.66-11.48-.23-7-.64-13.91-1.08-20.87-.8-12.67-4.44-24.72-8.33-36.7a9.69,9.69,0,0,0-1.29-2,61.5,61.5,0,0,1-6.64,2.76c-6.85,1.92-13.74,3.49-21,2.29-4-.66-8-.93-12.69-1.45-.68,5-1.75,9.42-1.79,13.82-.19,20.14-.09,40.29-.09,60.43v4.71a69.48,69.48,0,0,1,6.89-2.59c6.13-1.57,9.84,1.91,8.76,8.1C341.14,376,340.93,376.6,340.62,377.74Zm-237.5-106c.09-1.89.23-3.65.24-5.4,0-11.33-.15-22.65.11-34,.08-3.45-1.21-5.52-3.73-7.47-8-6.19-16-12.52-23.95-18.78-3.2-2.51-6.42-5-10.07-7.83-1,3.14-1.61,5.73-2.65,8.13A35.06,35.06,0,0,0,60.51,221q.18,24.73,0,49.46a31,31,0,0,0,2,11.18A162.21,162.21,0,0,0,77.61,313c5,7.73,10.39,15.09,17.56,20.95,2.22,1.82,4.5,3.84,8,3.54V300.59C92,296.35,88.8,289.31,90.83,279.09c.13-.65.23-1.31.34-2,.7-3.92,1.9-5.09,5.86-5.38C98.85,271.6,100.68,271.71,103.12,271.71Zm101.74,82.36c6.72-2.4,11,.25,14.57,3.8a63.72,63.72,0,0,1,8.67,10.89c3.11,4.89,5.53,10.22,8.44,15.25,3,5.19,7.32,8.73,13.55,8.88a118.22,118.22,0,0,0,17.36-.32,79.76,79.76,0,0,1,22.78.78,48.46,48.46,0,0,0,19.3-.38c10.21-2.5,17.79-8.68,24-16.87a19.89,19.89,0,0,0,1.4-3.35c-2.57,1.4-4.11,2.3-5.7,3.1a35.9,35.9,0,0,1-6.26,2.93A60.78,60.78,0,0,1,295.8,380c-13.53-2.35-22.65-9.34-26.51-23-1.25-4.4-3.72-8.49-5.88-12.59-2.35-4.47-7.3-7.1-15-4.68,2.08,3.86,3.57,7.95,3.1,12.34-.89,8.31,1.08,15.46,7.61,21a7,7,0,0,1-.42.88,20.7,20.7,0,0,1-6.77-6.88c-2.91-4.7-3.65-9.84-3.58-15.27.08-6.32-3-10.63-8.7-12.49a81,81,0,0,0-11-3.1c-9.15-1.61-15.15-.46-19.88,8.17C207.34,347.09,206.5,350,204.86,354.07Zm486.92-88.25c-8.57,3.1-16,2.33-23.46-.11-9.47-3.12-18.85-6.56-28.41-9.38-15.44-4.55-30.92-9-46.54-12.92-10.77-2.68-21.78-4.49-32.73-6.4-11.25-2-22.53-3.75-33.85-5.26-7.56-1-15.2-1.45-22.81-2-12.6-1-25.2-2.29-37.83-2.62-12.29-.31-24.62.26-36.91.77-16.58.69-32.55,4.55-48,10.38a62.81,62.81,0,0,0-11.9,6.24c-4.4,2.86-5.57,7.27-4.72,12.33,3.74-3.42,6.94-7.16,10.9-9.75A71.64,71.64,0,0,1,398,237.81c12.14-3,24.59-4.08,37-4.83,17.61-1.07,35.3-.4,52.9,1,10.74.84,21.44,2.33,32.13,3.75,14.8,2,29.63,3.73,44.33,6.26,22.41,3.87,44.37,9.76,66.05,16.59,11.25,3.54,22.36,7.54,33.51,11.41,6.1,2.12,12.35,2.34,18.67,1.8C686.93,273.39,689.77,271,691.78,265.82Zm-36.73,85.24a10.43,10.43,0,0,0-1.87.47c-9.38,4.7-19.14,4.94-29.13,2.51-9.8-2.38-19.58-4.86-29.42-7.06-15.54-3.48-31.09-6.92-46.7-10.07-11.37-2.3-22.82-4.26-34.28-6.11-8-1.3-16.1-2.32-24.19-3.16-10.22-1.06-20.46-2.23-30.72-2.61-14.95-.56-29.91-.29-44.77,1.91-9.25,1.37-18.23,3.65-26.47,8.25-4.47,2.49-4.44,2.54-3.33,8.54,1.34-.79,2.54-1.65,3.87-2.27,4.8-2.24,9.49-4.86,14.5-6.5,11.91-3.92,24.4-4.42,36.8-5.11a99.19,99.19,0,0,1,13.46.31c9.09.72,18.17,1.67,27.24,2.58,7.76.78,15.54,1.42,23.25,2.51,11.66,1.65,23.3,3.46,34.9,5.51s23.16,4.22,34.63,6.81c13.09,2.95,26,6.68,39.1,9.6a131.14,131.14,0,0,0,29.1,3.56,19.62,19.62,0,0,0,11.25-3.47C654.23,355.93,655.79,354.25,655.05,351.06Zm69.8-37.64V344L743,314.74ZM431.59,201.55c0,7.7-.18,14.42.13,21.41l26.35-.86Zm-99.86,187c18.22.84,35.74-1.67,53.24-5v-4.7c-5.06,1.1-9.67,2.38-14.37,3.09-10.47,1.57-21,2.7-31.63,2.12C335.39,383.78,333.45,385.28,331.73,388.5Zm-67-63.51c3.79,1.52,7.16,2.77,10.59-.14a88,88,0,0,0-.07-9.48c-.41-3.74-1.33-7.42-2-11.06-4.59-.26-5.14-.2-6,2.8C265.6,312.81,264,318.56,264.73,325Zm-20.25-19.77a39.64,39.64,0,0,0-5,23.23c3.95-1.78,7.08-3.13,10.14-4.62a3.43,3.43,0,0,0,1.55-1.78C253.34,315.94,250.86,309.52,244.48,305.22Zm38.59-2.38c-2.38,2.06-3.66,3.33-5.1,4.35s-1.49,2.48-1.35,4c.31,3.45.64,6.9,1,10.34.32,2.83,1.58,3.61,4.92,3.16,2.76-.38,3.91-1.7,3.64-4.3-.22-2.12-.41-4.26-.8-6.35C284.79,310.67,284,307.35,283.07,302.84Zm-4.51,60.22.59-.28V332.19a27.18,27.18,0,0,0-6.8,8.73,7.58,7.58,0,0,0,0,7.14c1.6,3.45,2.73,7.13,4.14,10.68C277.08,360.22,277.86,361.62,278.56,363.06Zm-16.68-39.61c.54-3.74,1.05-7.13,1.5-10.53.4-3-.39-5.51-3.68-7.12-2.23,2-5.49,3.39-6,6.69-.52,3.48-.11,7.11-.11,11Zm381.06-76.78v5.24l19.78,6.61c.75-2.35,1.35-4.27,2-6.26C657.64,248.64,650.6,247.27,642.94,246.67Zm-415.65,75.1a13.34,13.34,0,0,0,9.66.38l1.16-6.1c.51-2.72-.16-4.07-2.44-5.37s-3.81,0-5.25,1.44C227.92,314.64,227.3,317.86,227.29,321.77ZM678.54,304l-.77-.22c-3.09,7.07-6.18,14.14-9.45,21.6l10.22-1.1V304ZM333,284.16c1.21.25,2,.46,2.73.57,1,.14,2,.08,3,.31,8.6,2.08,16.7,0,24.62-3.11,2.91-1.13,2.83-1.49.7-4.64-9.21,5.34-15.77,6.53-27.07,4.27C334.63,281.1,334,281.84,333,284.16ZM274.51,398.33c.26,1.54.12,2.86.69,3.71,2.4,3.56,1.88,7.44.66,10.94-1.07,3.07-1.25,5.62.23,8.47,1.05,2,1.8,4.21,2.68,6.33l.48-.12V398.33Zm-59.34-78.84c-.32-4.3,2.18-8.64-2.27-11.68-3.91,1.35-6.75,5-6.82,8.72a3.43,3.43,0,0,0,3.67,3.7A51,51,0,0,0,215.17,319.49ZM224.09,308c-4,1.63-6.54,5.2-6.61,8.85,0,1.65.44,3.2,2.09,3.48,1.5.26,4,.34,4.55-.52a16.51,16.51,0,0,0,2.19-6.39C226.68,311.51,226.53,309.45,224.09,308ZM95.73,288.47c7.38-.83,8.43-2.56,7.16-11.76H95.73ZM290,305c-3.57,1.66-3.79,2.05-3.26,5,.4,2.25.71,4.51,1,6.78.28,1.91.52,3.83.8,5.82,4.4-1.55,5.13-2.12,4.71-5.41C292.75,313,292.09,308.78,290,305ZM216.24,409.12l-2.62-3.36c-1.1-1.39-2.27-2.58-4.14-1.17s-1.89,2.93-.84,4.82c1.41,2.52,4.48,4.59,6.82,4.25,2.81-.42,4.21-2.33,4.95-5.33l-4.93-3.54C215.77,406.46,215.93,407.34,216.24,409.12ZM725.12,303.43l-.88,1.1c.64.72,1.21,2,1.92,2.06,6.71.8,13.45,1.4,20.17,2.05.33,0,.81.08,1-.1.56-.65,1-1.39,2.07-2.87-4.76,0-8.75.3-12.67-.08S729,304.18,725.12,303.43Zm-427.47-1.76a25,25,0,0,0-3.52,2.67,3.19,3.19,0,0,0-.74,2.4c.83,3.95,1.83,7.87,2.79,11.82C300.35,316.51,300.65,313.32,297.65,301.67ZM193.22,395.11,188.06,391l4.16-.53c-1.7-.66-2.73-1.35-3.81-1.42a3.36,3.36,0,0,0-3.75,4,7.13,7.13,0,0,0,4.57,5.47c2.41.81,4.48-.34,6.13-2.29s.82-3.16-1.27-4.41C193.74,393.15,193.47,394.16,193.22,395.11ZM204,400.33l-.74,1.86L198.58,399l1.78-1.23c-4.4,1.68-5.29,2.62-4.94,4.68s2.8,4.66,4.51,4.85c3.11.36,4.86-1.13,6.38-5.61Zm33.64,20.25,1.37.11c.79-2.27,2-4.5,2.28-6.83.59-4.63-1.76-6.31-7.22-5.05C235.25,412.76,236.44,416.67,237.62,420.58Zm440.63-85.27c.3-1.93,1-4.36-2.11-4.22A60.87,60.87,0,0,0,665.51,333c-.46.11-.62,1.45-1,2.29ZM222.62,408.39c1,3.77,1.49,6.95,4.44,9.21,2.71-2.89,2.9-5.91,1.68-9.37-1.13-.1-2.1-.27-3.06-.27A25.36,25.36,0,0,0,222.62,408.39Zm26.77.66c-6.1,1.85-6.4,4.41-1.63,9.32C249.86,415.67,249.64,412.61,249.39,409.05Zm6.05,9.23c1.65-3,2.67-5.92,1.36-9.23C251.31,410.23,251.05,412,255.44,418.28Zm16.94-13.12c-4.46,2.25-4.91,4.35-2.56,10.72C272.92,412.84,272.53,409.26,272.38,405.16Zm-9.17,11.6c2.22-3.41,2.89-6.37,1.86-9.7-4.93.8-5.21,1.18-3.74,5.13C261.83,413.53,262.42,414.83,263.21,416.76Z"/><path class="cls-2" d="M622.47,332.92l-23.29-6.45c1.05-3,2.21-5.85,3-8.77a134.22,134.22,0,0,0,3.38-14,36.2,36.2,0,0,1,2.59-9.94c1.72-3.7,2.24-8,3.15-12,.42-1.84.51-3.76.82-6.22,8.73,2.06,17.46,4.36,25.7,7.17-.93,2.09-1.83,3.77-2.42,5.55-1.21,3.62-2.42,7.25-3.3,11-.53,2.21-.13,4.67-.75,6.85s-2.29,3.94-2.94,6.07C626.34,318.86,624.51,325.71,622.47,332.92Zm-2-30.41c2.85-2.65,5-9.09,5.59-16.42l-6.89-1.41c-.49,5.9-3.94,10.55-2.68,16.15a1.58,1.58,0,0,1-.47,1.32c-2.41,1.79-2.39,4.67-3.14,7.14-1.27,4.22-2.25,8.52-3.4,13l6,1.58C618.77,318.07,621.53,306.26,620.49,302.51Z"/><path class="cls-2" d="M573.67,266.69c-.94,1.66-1.86,2.7-2.13,3.89-1.08,4.69-2,9.41-2.85,14.15a23.84,23.84,0,0,0,.1,3.95c0,.92.16,2.08-.31,2.7-3.3,4.35-2.66,9.68-3.79,14.56-.18.82.44,1.82.67,2.67-5.69,3.15-17.42,6.5-21.91,6.31a12.61,12.61,0,0,1-2.47-.19,20.2,20.2,0,0,1-2.59-1c3.4-7.62,2.94-15.88,4.78-23.66.33-1.42-.59-3.14-.78-4,3.38-7.91,4.32-15.71,4.21-24.21Zm-24.81,39.57c1.13-.29,1.89-.54,2.68-.66,4.08-.62,5.68-2.93,6-7.08.35-4.6,1.67-9.12,2.51-13.68.79-4.36,1.51-8.74,2.34-13.58l-7.4-.68C552.91,282.66,550.91,294.29,548.86,306.26Z"/><path class="cls-2" d="M520.68,258.4l13,1.5c-3.38,2.9-3.15,6.48-3.45,9.83-.41,4.53-2.51,9-.52,13.65a1.44,1.44,0,0,1-.19,1.33c-3.18,2.81-1.84,6.89-2.78,10.31-1,3.62-1,7.53-1.29,11.33-.14,1.7,0,3.42,0,5.74l-24.46-3c1.67-9.88,3.16-19.06,2.21-29.12,2.24-3.8,3.82-17.77,2.06-23.41l11.43,1.3c-3,7.35-3.53,14.86-2.86,22.54a8.07,8.07,0,0,1-.16,2.73c-.4,1.56-1.25,3-1.47,4.6-.73,5.06-1.25,10.14-1.92,15.78l6.9.35c.48-6.94,3.43-13.49,1.43-20.55-.18-.62.44-1.47.71-2.2,2.42-6.45,3-13.17,2.83-20C522.15,260.56,521.56,260,520.68,258.4Z"/><path class="cls-2" d="M410.78,286.79l9.82,6c-.69,1.94-2.4,4.07-.52,6.66H426c.93-4.2.71-7.51-3.46-10.25-5-3.26-9.4-7.3-13.74-10.76,3.27-8.51.63-16.41-.14-24.55l26.87-.9a66.06,66.06,0,0,0-.91,7.28c-.12,6.8,0,13.61,0,21l-9.43-6.24c.4-2.32,1-4.66,1.16-7s0-4.92,0-7.72h-7.17c-1.22,2.33-.47,5-.59,7.59s0,5.32,0,8.12c4.24,3.4,8.43,6.89,12.77,10.17,2.31,1.73,3.56,3.66,3.27,6.67a47.89,47.89,0,0,0,0,7.48,49.19,49.19,0,0,0,1,5.38l-25.62.74C413.09,300.15,410.26,293.6,410.78,286.79Z"/><path class="cls-2" d="M472.81,306.67H462.74c.55-3.4,1.32-6.6,1.53-9.84.3-4.48.23-9,.2-13.48a35.2,35.2,0,0,0-.6-4.4c-.09-.62-.44-1.42-.18-1.84,3.1-5,1-10.39,1.88-15.84-1.35-.28-2.27-.54-3.2-.64-1.43-.15-3.08-.9-4.07.8a3.35,3.35,0,0,0,.59,4.14,4,4,0,0,1,.47,1.26l-8.63,5.54c-1.28-6.13.95-12.38-1.62-18.55A300.15,300.15,0,0,1,492,255.68c-1.94,6.16-2.34,12.27-2.51,19l-9.53-7c1.59-1.45,3.5-3,1.79-5.95l-6.94-.85c-1,5.81-2.45,11.19-.05,16.7.21.49-.15,1.23-.27,1.84-.62,3.21-1.51,6.4-1.82,9.64-.39,4.13-.37,8.3-.39,12.46A45.51,45.51,0,0,0,472.81,306.67Z"/><path class="cls-2" d="M585,323.16l-9.64-2.06c3.39-5,3.22-10.45,4.77-15.43a56.3,56.3,0,0,0,1.58-7.77,22.92,22.92,0,0,0,.07-3.32c0-.93-.33-2.11.11-2.75,3.82-5.59,3.18-12.43,5.25-18.51.32-.92-.39-2.2-.78-4l11.32,2.46c-1,2.1-2.18,3.84-2.69,5.76-1.15,4.33-2,8.73-2.88,13.12a12.18,12.18,0,0,0,0,2.83c0,.8.48,1.95.11,2.34-3.57,3.83-3.11,9-4.49,13.49C586.5,313.5,586,318,585,323.16Z"/><path class="cls-2" d="M248.2,202.27l5.89,5.07c.78-4,1.39-7.6,2.23-11.18.71-3,1.3-3.29,4.5-2.7a64.81,64.81,0,0,0,6.85,1.25c5.25.39,10.51.56,16.76.86.89.65,1.2,2.51,1.13,4.58a55.32,55.32,0,0,0,4.16,22.79,32,32,0,0,1,1.67,5.69c.79,3.92-.8,7.79-3.72,9.51-4.45,2.61-8.7,2.72-11.93-.47a30.31,30.31,0,0,1-6.5-8.65c-3.47-7.6-8.95-13.42-14.91-19-2.39-2.22-4.71-4.52-7.06-6.78Z"/><path class="cls-2" d="M271.12,261.75c-2.05-3.33-4.11-6.66-6.11-9.92-2.9.44-3.81,2.27-4.94,3.88a79,79,0,0,1-5.25,7.27c-2.51,2.84-4.44,2.72-7.06-.12a39,39,0,0,1-3.33-4.34,5.66,5.66,0,0,1-.33-6.09c2.25-4.82,4.31-9.75,6.14-14.75,1.31-3.55,2-7.32,3.23-10.9a7.6,7.6,0,0,1,2.69-3.81,2.72,2.72,0,0,1,4.19,1.29c3.58,9.78,10,18,14.86,27.05.46.88,1,1.75,1.33,2.66C278.72,259.14,277.09,261.47,271.12,261.75Z"/><path class="cls-2" d="M234.86,190.33c-.78-1.34-1.54-2.71-2.35-4a86.46,86.46,0,0,0-4.73-7.57c-2.64-3.47-2.76-3.36-7-1.73a11.24,11.24,0,0,1-2.84.83A43.08,43.08,0,0,1,188.78,170a16.12,16.12,0,0,1,3,0c6,1.11,11.93,2.81,18,3.3,3.79.3,7.85-.76,11.56-2,2.79-.88,4.94-.71,6.78,1.29C232.64,177.59,234.37,183.7,234.86,190.33Z"/><path class="cls-2" d="M217.54,248c-2.07,2.68-5.14,3.93-8.25,4.77a48.7,48.7,0,0,1-23.6.45c-5.62-1.28-11.26-2.56-16.81-4.14-5.24-1.49-5.34-1.88-5.17-8.17,3.44,1.38,6.77,2.67,10.06,4a96.9,96.9,0,0,0,24.9,6.58,24.43,24.43,0,0,0,16.24-3.3c.65-.4,1.33-.75,2-1.13Z"/></g></g></g></svg>